<svg width="49" height="14" viewBox="0 0 49 14" version="1.1" xmlns="http://www.w3.org/2000/svg" xmlns:xlink="http://www.w3.org/1999/xlink">
<g id="Canvas" fill="none">
<g id="xrp-text-mark-white-small">
<path id="Vector 3 (Stroke)" fill-rule="evenodd" clip-rule="evenodd" d="M 0 0L 7.5481 0C 10.0261 0 12.0348 1.99281 12.0348 4.45107C 12.0348 6.90933 10.0261 8.90215 7.5481 8.90215L 2.29984 8.90215L 2.29984 14L 0 14L 0 0ZM 2.29984 6.62059L 7.5481 6.62059C 8.75589 6.62059 9.735 5.64926 9.735 4.45107C 9.735 3.25288 8.75589 2.28156 7.5481 2.28156L 2.29984 2.28156L 2.29984 6.62059Z" transform="translate(36.9652 0)" fill="white"/>
<path id="Subtract" fill-rule="evenodd" clip-rule="evenodd" d="M 0.0208873 0L 0 0.0204053L 1.67877 1.66448L 5.21618 5.12864C 7.02541 6.90036 9.95858 6.90036 11.7678 5.12864L 15.3052 1.66448L 16.984 0.0204053L 16.9631 0L 13.6056 0L 13.6265 0.0204053L 10.089 3.48458C 9.20697 4.34831 7.77702 4.34831 6.89495 3.48458L 3.35754 0.0204053L 3.37843 0L 0.0208873 0Z" fill="white"/>
<path id="Subtract_2" fill-rule="evenodd" clip-rule="evenodd" d="M 13.5847 6.41661L 10.0682 2.97285C 9.18608 2.10912 7.75614 2.10912 6.87406 2.97285L 3.35754 6.41661L 0 6.41661L 1.65788 4.79295L 5.19529 1.32879C 7.00453 -0.442929 9.93769 -0.442929 11.7469 1.32879L 15.2843 4.79295L 16.9422 6.41661L 13.5847 6.41661Z" transform="translate(0.0209961 7.58337)" fill="white"/>
<path id="Subtract_3" fill-rule="evenodd" clip-rule="evenodd" d="M 2.29984 2.28156L 7.4265 2.28156C 7.64853 2.28156 8.29279 2.40635 8.85796 2.77685C 9.37388 3.11512 9.735 3.58895 9.735 4.32375C 9.735 4.76194 9.68222 5.00169 9.59431 5.1975C 9.53431 5.33111 9.4403 5.48338 9.27522 5.68032L 10.794 7.42058C 11.1727 7.01494 11.4819 6.60089 11.6951 6.12601C 11.9594 5.53745 12.0348 4.94964 12.0348 4.32375C 12.0348 2.63949 11.115 1.52183 10.126 0.873388C 9.18603 0.257165 8.10108 0 7.4265 0L 1.17559 0C 0.52635 0 0 0.522137 0 1.16622L 0 14L 2.29984 14L 2.29984 8.90215L 5.11977 8.90215C 5.75905 8.90215 6.36626 9.18011 6.78111 9.66268L 10.5102 14L 13.5327 14L 8.53102 8.18212C 7.67917 7.1913 6.43235 6.62059 5.11977 6.62059L 2.29984 6.62059L 2.29984 2.28156Z" transform="translate(19.9812 0)" fill="white"/>
</g>
</g>
</svg>
