<svg width="512" height="143" viewBox="0 0 512 143" version="1.1" xmlns="http://www.w3.org/2000/svg" xmlns:xlink="http://www.w3.org/1999/xlink">
<g id="Canvas" fill="none">
<g id="xrp-text-mark-black">
<g id="Group">
<path id="Vector" d="M 143.928 0L 168.372 0L 117.518 51.4245C 99.1086 70.0395 69.2627 70.0395 50.8541 51.4245L 8.30456e-09 0L 24.4431 0L 63.0757 39.0659C 74.7345 50.8554 93.6366 50.8554 105.295 39.0659L 143.928 0Z" transform="translate(0.311646 0)" fill="#23292F"/>
<path id="Vector_2" d="M 24.4432 65.7034L 0 65.7034L 51.1682 13.9612C 69.5768 -4.65374 99.4227 -4.65374 117.832 13.9612L 169 65.7034L 144.557 65.7034L 105.61 26.3196C 93.9508 14.53 75.0486 14.53 63.3899 26.3196L 24.4432 65.7034Z" transform="translate(0 77.2965)" fill="#23292F"/>
</g>
<path id="Union" fill-rule="evenodd" clip-rule="evenodd" d="M 73.1365 0L 73.1637 0.000372426C 79.4083 0.129969 85.2723 1.35704 90.7291 3.69537C 96.275 5.8933 101.147 8.93696 105.324 12.8252C 109.518 16.7277 112.793 21.3388 115.154 26.6325C 117.528 31.8339 118.71 37.3548 118.71 43.1721C 118.71 49.1231 117.457 54.7736 114.946 60.102C 112.58 65.2803 109.236 69.8798 104.928 73.8884C 100.742 77.7837 95.8004 80.8874 90.1272 83.2056L 90.1005 83.2164C 84.5016 85.4307 78.4991 86.5289 72.1193 86.5289L 18.7701 86.5289L 18.7701 142.515L 0 142.515L 0 0.000372426L 73.1365 0ZM 72.1193 69.2464C 75.8827 69.2464 79.4447 68.5705 82.8275 67.2212C 86.2414 65.8594 89.2106 63.9962 91.7548 61.6288C 94.2985 59.2618 96.3007 56.4982 97.7642 53.3212C 99.2095 50.1826 99.9402 46.8071 99.9402 43.1721C 99.9402 39.6704 99.2138 36.356 97.7642 33.2077C 96.3007 30.0307 94.2985 27.2671 91.7548 24.9001C 89.2106 22.5331 86.2414 20.6696 82.8275 19.3077C 79.4447 17.9588 75.8827 17.2829 72.1193 17.2829L 18.7701 17.2829L 18.7701 69.2464L 72.1193 69.2464Z" transform="translate(393.29 0)" fill="#23292F"/>
<path id="Union_2" d="M 45.7768 86.8257C 55.1828 86.8257 64.0833 90.7999 69.9857 97.6349L 108.742 142.515L 132.871 142.515L 79.8436 80.2913C 73.9448 73.3694 64.9858 69.3359 55.5094 69.3359L 18.7701 69.3359L 18.7701 17.4902L 72.1198 17.4902C 75.8827 17.4902 79.4447 18.167 82.8275 19.5176C 86.2419 20.8809 89.2111 22.7468 91.7548 25.1172L 91.7976 25.156C 94.315 27.3903 96.3055 30.0792 97.7642 33.2513C 99.2095 36.394 99.9401 39.7731 99.9401 43.4129C 99.9401 47.0474 99.2116 50.422 97.7706 53.5606C 96.8962 55.3918 95.8268 57.0993 94.5605 58.6863L 106.774 72.3171C 106.927 72.1564 107.078 71.9946 107.229 71.8316C 110.84 67.9484 113.623 63.6069 115.572 58.8164C 117.669 53.9875 118.71 48.8462 118.71 43.4129C 118.71 37.5873 117.528 32.06 115.154 26.8519C 112.794 21.5506 109.518 16.9342 105.324 13.026C 101.151 9.13794 96.2879 6.03255 90.7526 3.71021C 85.2895 1.36215 79.418 0.130137 73.1637 0.000745722L 73.1365 0L 9.3853 0C 6.81059 0 4.55556 0.969876 2.69921 2.69932C 0.924157 4.35344 0 6.40953 0 8.74492L 0 142.515L 18.7701 142.515L 18.7701 86.8257L 45.7768 86.8257Z" transform="translate(211.163 0)" fill="#23292F"/>
</g>
</g>
</svg>
